<svg xmlns="http://www.w3.org/2000/svg" xmlns:xlink="http://www.w3.org/1999/xlink" viewBox="0 0 131.4 131.4"><defs><clipPath id="clip-path"><rect width="131.4" height="131.4" fill="svgcolor"/></clipPath></defs><g clip-path="url(#clip-path)"><path d="M65.7,131.4A65.7,65.7,0,1,0,0,65.7a65.68,65.68,0,0,0,65.7,65.7" fill="#fabdb1"/></g><g clip-path="url(#clip-path)"><path d="M22.1,95.8a2.55,2.55,0,0,1-2.9,2.3,2.64,2.64,0,0,1-2.4-2.8A2.55,2.55,0,0,1,19.7,93a2.52,2.52,0,0,1,2.4,2.8"/></g><g clip-path="url(#clip-path)"><path d="M19.8,93.3a2.21,2.21,0,1,0,2,2.4,2.23,2.23,0,0,0-2-2.4m-.5,5.2a3,3,0,0,1-2.7-3.3,3,3,0,0,1,3.3-2.7,3,3,0,1,1-.6,6"/></g><g clip-path="url(#clip-path)"><path d="M38.4,79.4a2.55,2.55,0,0,1-2.9,2.3,2.64,2.64,0,0,1-2.4-2.8A2.55,2.55,0,0,1,36,76.6a2.66,2.66,0,0,1,2.4,2.8"/></g><g clip-path="url(#clip-path)"><path d="M36,77a2.21,2.21,0,1,0,2,2.4A2.23,2.23,0,0,0,36,77m-.5,5.2a3,3,0,0,1-2.7-3.3,3,3,0,0,1,3.3-2.7,3,3,0,0,1,2.7,3.3,3.09,3.09,0,0,1-3.3,2.7"/></g><g clip-path="url(#clip-path)"><path d="M45.8,71.5a2.55,2.55,0,0,1-2.9,2.3A2.64,2.64,0,0,1,40.5,71a2.66,2.66,0,0,1,5.3.5"/></g><g clip-path="url(#clip-path)"><path d="M43.4,69a2.21,2.21,0,1,0,2,2.4,2.23,2.23,0,0,0-2-2.4m-.5,5.2a3,3,0,0,1-2.7-3.3,2.91,2.91,0,0,1,3.3-2.7,3,3,0,1,1-.6,6"/></g><g clip-path="url(#clip-path)"><path d="M41.6,43.4a2.55,2.55,0,0,1-2.9,2.3,2.64,2.64,0,0,1-2.4-2.8,2.55,2.55,0,0,1,2.9-2.3,2.52,2.52,0,0,1,2.4,2.8"/></g><g clip-path="url(#clip-path)"><path d="M39.2,40.9a2.21,2.21,0,1,0,2,2.4,2.23,2.23,0,0,0-2-2.4m-.5,5.2A3,3,0,0,1,36,42.8a3,3,0,1,1,2.7,3.3"/></g><g clip-path="url(#clip-path)"><path d="M54.8,27.8a2.55,2.55,0,0,1-2.9,2.3,2.66,2.66,0,0,1-2.4-2.8A2.55,2.55,0,0,1,52.4,25a2.59,2.59,0,0,1,2.4,2.8"/></g><g clip-path="url(#clip-path)"><path d="M52.4,25.4a2.21,2.21,0,1,0,2,2.4,2.23,2.23,0,0,0-2-2.4m-.5,5.2a3,3,0,0,1-2.7-3.3,3,3,0,0,1,6,.6,3,3,0,0,1-3.3,2.7"/></g><g clip-path="url(#clip-path)"><path d="M64.2,27.2a2.55,2.55,0,0,1-2.9,2.3,2.64,2.64,0,0,1-2.4-2.8,2.55,2.55,0,0,1,2.9-2.3,2.59,2.59,0,0,1,2.4,2.8"/></g><g clip-path="url(#clip-path)"><path d="M61.8,24.8a2.21,2.21,0,1,0,2,2.4,2.23,2.23,0,0,0-2-2.4M61.3,30a3,3,0,0,1-2.7-3.3,3,3,0,0,1,6,.6A3,3,0,0,1,61.3,30"/></g><g clip-path="url(#clip-path)"><path d="M88.2,37.6a2.55,2.55,0,0,1-2.9,2.3,2.66,2.66,0,0,1-2.4-2.8,2.55,2.55,0,0,1,2.9-2.3,2.52,2.52,0,0,1,2.4,2.8"/></g><g clip-path="url(#clip-path)"><path d="M85.8,35.1a2.21,2.21,0,1,0,2,2.4,2.23,2.23,0,0,0-2-2.4m-.5,5.2A3,3,0,0,1,82.6,37a3,3,0,0,1,6,.6,3,3,0,0,1-3.3,2.7"/></g><g clip-path="url(#clip-path)"><path d="M105.2,62.5a2.55,2.55,0,0,1-2.9,2.3A2.64,2.64,0,0,1,99.9,62a2.55,2.55,0,0,1,2.9-2.3,2.59,2.59,0,0,1,2.4,2.8"/></g><g clip-path="url(#clip-path)"><path d="M102.8,60.1a2.21,2.21,0,1,0,2,2.4,2.23,2.23,0,0,0-2-2.4m-.5,5.2A3,3,0,0,1,99.6,62a3,3,0,0,1,6,.6,3.16,3.16,0,0,1-3.3,2.7"/></g><g clip-path="url(#clip-path)"><path d="M118.3,83.7a2.55,2.55,0,0,1-2.9,2.3,2.66,2.66,0,0,1-2.4-2.8,2.55,2.55,0,0,1,2.9-2.3,2.59,2.59,0,0,1,2.4,2.8"/></g><g clip-path="url(#clip-path)"><path d="M115.9,81.2a2.21,2.21,0,1,0,2,2.4,2.36,2.36,0,0,0-2-2.4m-.5,5.3a3,3,0,0,1-2.7-3.3,3,3,0,0,1,6,.6,3.16,3.16,0,0,1-3.3,2.7"/></g><g clip-path="url(#clip-path)"><path d="M75.1,66.4a2.55,2.55,0,0,1-2.9,2.3,2.64,2.64,0,0,1-2.4-2.8,2.55,2.55,0,0,1,2.9-2.3,2.66,2.66,0,0,1,2.4,2.8"/></g><g clip-path="url(#clip-path)"><path d="M72.7,64a2.21,2.21,0,1,0,2,2.4,2.23,2.23,0,0,0-2-2.4m-.5,5.2a3,3,0,0,1-2.7-3.3,3,3,0,0,1,6,.6,3.09,3.09,0,0,1-3.3,2.7"/></g><g clip-path="url(#clip-path)"><path d="M77.5,88.8a2.55,2.55,0,0,1-2.9,2.3,2.66,2.66,0,0,1-2.4-2.8,2.66,2.66,0,0,1,5.3.5"/></g><g clip-path="url(#clip-path)"><path d="M75.1,86.3a2.21,2.21,0,1,0,2,2.4,2.23,2.23,0,0,0-2-2.4m-.5,5.2a3,3,0,0,1-2.7-3.3,3,3,0,1,1,2.7,3.3"/></g><rect x="38.01" y="34.88" width="15" height="0.8" transform="translate(-11.19 45.33) rotate(-47.84)"/><rect x="54.9" y="26.5" width="4.1" height="0.8" transform="translate(-2.34 5.64) rotate(-5.56)"/><rect x="66.08" y="27.7" width="0.8" height="11.8" transform="translate(-7.29 43.89) rotate(-34.75)"/><rect x="74.1" y="38.5" width="9.3" height="0.8" transform="translate(-7.04 20.05) rotate(-13.9)"/><rect x="65.55" y="51.28" width="26.5" height="0.8" transform="translate(-1.95 100.26) rotate(-64.29)"/><rect x="72.8" y="68.5" width="0.8" height="17.4" transform="translate(-8.13 8.62) rotate(-6.38)"/><rect x="93.88" y="37.1" width="0.8" height="25.1" transform="translate(-11.68 60.87) rotate(-33.82)"/><rect x="108.69" y="62.9" width="0.8" height="19.9" transform="translate(-21.98 67.67) rotate(-31.47)"/><rect x="40.3" y="45.4" width="0.8" height="23.1" transform="translate(-8.44 7.1) rotate(-9.03)"/><polygon points="38.3 77.6 37.7 77.1 41.5 73.1 42 73.6 38.3 77.6"/><rect x="18.88" y="87.23" width="17.9" height="0.8" transform="translate(-54.69 47.1) rotate(-46.22)"/><g clip-path="url(#clip-path)"><path d="M73.9,40A2.55,2.55,0,0,1,71,42.3a2.66,2.66,0,0,1-2.4-2.8,2.66,2.66,0,0,1,5.3.5"/></g><g clip-path="url(#clip-path)"><path d="M71.5,37.5a2.21,2.21,0,1,0,2,2.4,2.23,2.23,0,0,0-2-2.4M71,42.7a3,3,0,0,1-2.7-3.3,3,3,0,0,1,6,.6A3,3,0,0,1,71,42.7"/></g></svg>