<svg xmlns="http://www.w3.org/2000/svg" xmlns:xlink="http://www.w3.org/1999/xlink" viewBox="0 0 131.4 131.4"><defs><clipPath id="clip-path"><rect width="131.4" height="131.4" fill="svgcolor"/></clipPath></defs><g clip-path="url(#clip-path)"><path d="M65.7,131.4A65.7,65.7,0,1,0,0,65.7a65.68,65.68,0,0,0,65.7,65.7" fill="#fabdb1"/></g><g clip-path="url(#clip-path)"><path d="M27.7,46a4.2,4.2,0,1,1-4.2-4.2A4.16,4.16,0,0,1,27.7,46"/></g><g clip-path="url(#clip-path)"><path d="M23.5,42.4A3.6,3.6,0,1,0,27.1,46a3.59,3.59,0,0,0-3.6-3.6m0,8.4A4.8,4.8,0,0,1,18.7,46a4.87,4.87,0,0,1,4.8-4.8,4.8,4.8,0,1,1,0,9.6"/></g><g clip-path="url(#clip-path)"><path d="M77.7,62.4a4.2,4.2,0,1,1-4.2-4.2,4.16,4.16,0,0,1,4.2,4.2"/></g><g clip-path="url(#clip-path)"><path d="M73.5,58.8a3.6,3.6,0,1,0,3.6,3.6,3.72,3.72,0,0,0-3.6-3.6m0,8.4a4.8,4.8,0,1,1,4.8-4.8,4.87,4.87,0,0,1-4.8,4.8"/></g><g clip-path="url(#clip-path)"><path d="M99.2,71.2A4.2,4.2,0,1,1,95,67a4.23,4.23,0,0,1,4.2,4.2"/></g><g clip-path="url(#clip-path)"><path d="M95,67.6a3.6,3.6,0,1,0,3.6,3.6A3.59,3.59,0,0,0,95,67.6M95,76a4.8,4.8,0,0,1-4.8-4.8A4.87,4.87,0,0,1,95,66.4,4.8,4.8,0,1,1,95,76"/></g><g clip-path="url(#clip-path)"><path d="M102.4,87.5a4.2,4.2,0,1,1-4.2-4.2,4.23,4.23,0,0,1,4.2,4.2"/></g><g clip-path="url(#clip-path)"><path d="M98.2,83.9a3.6,3.6,0,1,0,3.6,3.6,3.65,3.65,0,0,0-3.6-3.6m0,8.4a4.8,4.8,0,1,1,4.8-4.8,4.87,4.87,0,0,1-4.8,4.8"/></g><rect x="47.39" y="31.73" width="1.2" height="44.3" transform="translate(-17.89 83.3) rotate(-72.37)"/><rect x="84.09" y="59.12" width="1.3" height="14.6" transform="translate(-5.57 125.05) rotate(-71.08)"/><rect x="95.8" y="75.3" width="1.3" height="7.7" transform="translate(-12.03 17.52) rotate(-9.77)"/></svg>