<svg xmlns="http://www.w3.org/2000/svg" xmlns:xlink="http://www.w3.org/1999/xlink" viewBox="0 0 131.4 131.4"><defs><clipPath id="clip-path"><rect width="131.4" height="131.4" fill="svgcolor"/></clipPath></defs><g clip-path="url(#clip-path)"><path d="M65.7,131.4A65.7,65.7,0,1,0,0,65.7a65.68,65.68,0,0,0,65.7,65.7" fill="#fabdb1"/></g><g clip-path="url(#clip-path)"><path d="M74.4,15.7a3.1,3.1,0,1,1-3.6-2.5,3.08,3.08,0,0,1,3.6,2.5"/></g><g clip-path="url(#clip-path)"><path d="M70.9,13.6a2.64,2.64,0,0,0-2.1,3.1,2.57,2.57,0,0,0,3.1,2.1A2.61,2.61,0,0,0,74,15.7a2.77,2.77,0,0,0-3.1-2.1M72,19.8a3.76,3.76,0,0,1-4.2-2.9,3.68,3.68,0,0,1,2.9-4.2,3.62,3.62,0,0,1,4.2,2.9A3.68,3.68,0,0,1,72,19.8"/></g><g clip-path="url(#clip-path)"><path d="M78.7,24a3.1,3.1,0,1,1-3.6-2.5A3.08,3.08,0,0,1,78.7,24"/></g><g clip-path="url(#clip-path)"><path d="M75.2,21.9A2.64,2.64,0,0,0,73.1,25a2.57,2.57,0,0,0,3.1,2.1A2.61,2.61,0,0,0,78.3,24a2.77,2.77,0,0,0-3.1-2.1M76.3,28a3.76,3.76,0,0,1-4.2-2.9,3.61,3.61,0,0,1,7.1-1.3A3.65,3.65,0,0,1,76.3,28"/></g><g clip-path="url(#clip-path)"><path d="M94.4,64a3.1,3.1,0,1,1-3.6-2.5A3.08,3.08,0,0,1,94.4,64"/></g><g clip-path="url(#clip-path)"><path d="M90.9,61.9A2.64,2.64,0,0,0,88.8,65a2.57,2.57,0,0,0,3.1,2.1A2.64,2.64,0,0,0,94,64a2.77,2.77,0,0,0-3.1-2.1M92,68a3.76,3.76,0,0,1-4.2-2.9,3.68,3.68,0,0,1,2.9-4.2A3.61,3.61,0,1,1,92,68"/></g><g clip-path="url(#clip-path)"><path d="M99.6,75.7A3.1,3.1,0,1,1,96,73.2a3,3,0,0,1,3.6,2.5"/></g><g clip-path="url(#clip-path)"><path d="M96.1,73.6A2.64,2.64,0,0,0,94,76.7a2.65,2.65,0,0,0,5.2-1,2.69,2.69,0,0,0-3.1-2.1m1.1,6.1A3.76,3.76,0,0,1,93,76.8a3.61,3.61,0,0,1,7.1-1.3,3.65,3.65,0,0,1-2.9,4.2"/></g><g clip-path="url(#clip-path)"><path d="M83.7,79a3.1,3.1,0,1,1-3.6-2.5A3.27,3.27,0,0,1,83.7,79"/></g><g clip-path="url(#clip-path)"><path d="M80.1,77A2.64,2.64,0,0,0,78,80.1a2.57,2.57,0,0,0,3.1,2.1,2.64,2.64,0,0,0,2.1-3.1A2.69,2.69,0,0,0,80.1,77m1.1,6.1A3.76,3.76,0,0,1,77,80.2a3.61,3.61,0,1,1,4.2,2.9"/></g><g clip-path="url(#clip-path)"><path d="M71.3,88a3.1,3.1,0,1,1-3.6-2.5A3,3,0,0,1,71.3,88"/></g><g clip-path="url(#clip-path)"><path d="M67.8,85.9A2.65,2.65,0,1,0,70.9,88a2.69,2.69,0,0,0-3.1-2.1M68.9,92a3.76,3.76,0,0,1-4.2-2.9,3.61,3.61,0,1,1,7.1-1.3A3.65,3.65,0,0,1,68.9,92"/></g><g clip-path="url(#clip-path)"><path d="M51.7,92a3.1,3.1,0,1,1-3.6-2.5A3.08,3.08,0,0,1,51.7,92"/></g><g clip-path="url(#clip-path)"><path d="M48.1,89.9A2.64,2.64,0,0,0,46,93a2.65,2.65,0,0,0,5.2-1,2.69,2.69,0,0,0-3.1-2.1M49.2,96A3.76,3.76,0,0,1,45,93.1a3.68,3.68,0,0,1,2.9-4.2,3.62,3.62,0,0,1,4.2,2.9A3.57,3.57,0,0,1,49.2,96"/></g><g clip-path="url(#clip-path)"><path d="M38.1,96.3a3.1,3.1,0,1,1-3.6-2.5,3.08,3.08,0,0,1,3.6,2.5"/></g><g clip-path="url(#clip-path)"><path d="M34.6,94.2a2.65,2.65,0,1,0,3.1,2.1,2.77,2.77,0,0,0-3.1-2.1m1.1,6.2a3.76,3.76,0,0,1-4.2-2.9,3.61,3.61,0,0,1,7.1-1.3,3.76,3.76,0,0,1-2.9,4.2"/></g><g clip-path="url(#clip-path)"><path d="M42.1,86.4a3.1,3.1,0,1,1-3.6-2.5,3.08,3.08,0,0,1,3.6,2.5"/></g><g clip-path="url(#clip-path)"><path d="M38.6,84.4a2.64,2.64,0,0,0-2.1,3.1,2.65,2.65,0,0,0,5.2-1,2.69,2.69,0,0,0-3.1-2.1m1.1,6.1a3.76,3.76,0,0,1-4.2-2.9,3.61,3.61,0,1,1,7.1-1.3,3.65,3.65,0,0,1-2.9,4.2"/></g><g clip-path="url(#clip-path)"><path d="M48.6,72.9A3.1,3.1,0,1,1,45,70.4a3.08,3.08,0,0,1,3.6,2.5"/></g><g clip-path="url(#clip-path)"><path d="M45,70.8a2.65,2.65,0,1,0,3.1,2.1A2.64,2.64,0,0,0,45,70.8M46.1,77a3.76,3.76,0,0,1-4.2-2.9,3.68,3.68,0,0,1,2.9-4.2A3.62,3.62,0,0,1,49,72.8,3.55,3.55,0,0,1,46.1,77"/></g><g clip-path="url(#clip-path)"><path d="M60.3,65.8a3.1,3.1,0,1,1-3.6-2.5,3.13,3.13,0,0,1,3.6,2.5"/></g><g clip-path="url(#clip-path)"><path d="M56.7,63.8a2.64,2.64,0,0,0-2.1,3.1,2.65,2.65,0,0,0,5.2-1,2.64,2.64,0,0,0-3.1-2.1m1.1,6.1A3.76,3.76,0,0,1,53.6,67a3.68,3.68,0,0,1,2.9-4.2,3.62,3.62,0,0,1,4.2,2.9,3.55,3.55,0,0,1-2.9,4.2"/></g><polygon points="72.4 19.1 74 22 74.8 21.5 73.2 18.7 72.4 19.1"/><rect x="82.9" y="26.2" width="0.9" height="36.5" transform="translate(-10.19 31.3) rotate(-20.07)"/><rect x="93.19" y="67.19" width="0.9" height="6.2" transform="translate(-20.12 42.58) rotate(-23.2)"/><rect x="84.01" y="77.4" width="9.7" height="0.9" transform="translate(-15.33 22.17) rotate(-13.1)"/><rect x="69.89" y="83.29" width="8.6" height="0.9" transform="translate(-35.2 60.28) rotate(-36.36)"/><rect x="51.7" y="90.6" width="14.2" height="0.9" transform="translate(-15.34 11.99) rotate(-10.31)"/><rect x="37.89" y="94.6" width="7.7" height="0.9" transform="translate(-26.54 16.86) rotate(-17.42)"/><rect x="34.63" y="91.28" width="4.4" height="0.9" transform="translate(-62.02 92.06) rotate(-68.31)"/><rect x="38.03" y="79.74" width="8.4" height="0.9" transform="translate(-48.35 83.12) rotate(-64.08)"/><rect x="47.5" y="69.1" width="7.5" height="0.9" transform="translate(-27.52 34.07) rotate(-29.37)"/><rect x="47.14" y="45.09" width="39.7" height="0.9" transform="translate(0.04 91.13) rotate(-68.47)"/></svg>