<svg xmlns="http://www.w3.org/2000/svg" xmlns:xlink="http://www.w3.org/1999/xlink" viewBox="0 0 131.4 131.4"><defs><clipPath id="clip-path"><rect width="131.4" height="131.4" fill="svgcolor"/></clipPath></defs><g clip-path="url(#clip-path)"><path d="M65.7,131.4A65.7,65.7,0,1,0,0,65.7a65.68,65.68,0,0,0,65.7,65.7" fill="#fabdb1"/></g><g clip-path="url(#clip-path)"><path d="M98.5,21.9a2.93,2.93,0,1,1-3.3-2.5,2.93,2.93,0,0,1,3.3,2.5"/></g><g clip-path="url(#clip-path)"><path d="M95.6,19.8h-.3a2.42,2.42,0,0,0-2.1,2.8,2.58,2.58,0,0,0,2.5,2.2H96A2.56,2.56,0,0,0,98.2,22a2.75,2.75,0,0,0-2.6-2.2m0,5.9a3.35,3.35,0,0,1-3.3-2.9A3.52,3.52,0,0,1,95.2,19h.4a3.35,3.35,0,0,1,3.3,2.9A3.52,3.52,0,0,1,96,25.7c-.1-.1-.3,0-.4,0"/></g><g clip-path="url(#clip-path)"><path d="M88.8,17.8a2.93,2.93,0,1,1-3.3-2.5,2.93,2.93,0,0,1,3.3,2.5"/></g><g clip-path="url(#clip-path)"><path d="M85.9,15.7h-.3a2.42,2.42,0,0,0-2.1,2.8A2.58,2.58,0,0,0,86,20.7h.3a2.42,2.42,0,0,0,2.1-2.8,2.66,2.66,0,0,0-2.5-2.2m0,5.9a3.35,3.35,0,0,1-3.3-2.9,3.52,3.52,0,0,1,2.9-3.8h.4a3.35,3.35,0,0,1,3.3,2.9,3.52,3.52,0,0,1-2.9,3.8h-.4"/></g><g clip-path="url(#clip-path)"><path d="M77.4,38.1a2.93,2.93,0,1,1-3.3-2.5,2.75,2.75,0,0,1,3.3,2.5"/></g><g clip-path="url(#clip-path)"><path d="M74.5,35.9h-.3a2.14,2.14,0,0,0-1.6,1,2.38,2.38,0,0,0-.5,1.8,2.58,2.58,0,0,0,2.5,2.2h.3A2.42,2.42,0,0,0,77,38.1a2.5,2.5,0,0,0-2.5-2.2m0,5.9a3.35,3.35,0,0,1-3.3-2.9,3.22,3.22,0,0,1,.7-2.5,3.16,3.16,0,0,1,2.2-1.3h.4A3.35,3.35,0,0,1,77.8,38a3.52,3.52,0,0,1-2.9,3.8h-.4"/></g><g clip-path="url(#clip-path)"><path d="M82.6,50.9a2.93,2.93,0,1,1-3.3-2.5,2.93,2.93,0,0,1,3.3,2.5"/></g><g clip-path="url(#clip-path)"><path d="M79.7,48.8h-.3a2.14,2.14,0,0,0-1.6,1,2.38,2.38,0,0,0-.5,1.8,2.58,2.58,0,0,0,2.5,2.2h.3A2.42,2.42,0,0,0,82.2,51a2.56,2.56,0,0,0-2.5-2.2m0,5.8a3.35,3.35,0,0,1-3.3-2.9,3.22,3.22,0,0,1,.7-2.5,3.16,3.16,0,0,1,2.2-1.3h.4A3.35,3.35,0,0,1,83,50.8a3.52,3.52,0,0,1-2.9,3.8h-.4"/></g><g clip-path="url(#clip-path)"><path d="M44.7,71.9a2.93,2.93,0,1,1-3.3-2.5,2.88,2.88,0,0,1,3.3,2.5"/></g><g clip-path="url(#clip-path)"><path d="M41.9,69.8h-.3a2.14,2.14,0,0,0-1.6,1,2.38,2.38,0,0,0-.5,1.8A2.58,2.58,0,0,0,42,74.8h.3A2.42,2.42,0,0,0,44.4,72a2.75,2.75,0,0,0-2.5-2.2m-.1,5.9a3.35,3.35,0,0,1-3.3-2.9,3.22,3.22,0,0,1,.7-2.5A3.38,3.38,0,0,1,41.4,69h.4a3.35,3.35,0,0,1,3.3,2.9,3.52,3.52,0,0,1-2.9,3.8h-.4"/></g><g clip-path="url(#clip-path)"><path d="M29.3,104a2.93,2.93,0,1,1-3.3-2.5,3,3,0,0,1,3.3,2.5"/></g><g clip-path="url(#clip-path)"><path d="M26.4,101.9h-.3a2.14,2.14,0,0,0-1.6,1,2.5,2.5,0,0,0-.5,1.8,2.58,2.58,0,0,0,2.5,2.2h.3a2.42,2.42,0,0,0,2.1-2.8,2.56,2.56,0,0,0-2.5-2.2m0,5.9a3.35,3.35,0,0,1-3.3-2.9,3.22,3.22,0,0,1,.7-2.5,3.16,3.16,0,0,1,2.2-1.3h.4a3.35,3.35,0,0,1,3.3,2.9,3.52,3.52,0,0,1-2.9,3.8h-.4"/></g><g clip-path="url(#clip-path)"><path d="M52.9,87.9a2.93,2.93,0,1,1-3.3-2.5,2.93,2.93,0,0,1,3.3,2.5"/></g><g clip-path="url(#clip-path)"><path d="M50,85.8h-.3a2.14,2.14,0,0,0-1.6,1,2.38,2.38,0,0,0-.5,1.8,2.58,2.58,0,0,0,2.5,2.2h.3A2.42,2.42,0,0,0,52.5,88,2.49,2.49,0,0,0,50,85.8m0,5.8a3.35,3.35,0,0,1-3.3-2.9,3.22,3.22,0,0,1,.7-2.5,3.16,3.16,0,0,1,2.2-1.3H50a3.35,3.35,0,0,1,3.3,2.9,3.52,3.52,0,0,1-2.9,3.8H50"/></g><g clip-path="url(#clip-path)"><path d="M105.8,68.4a2.93,2.93,0,1,1-3.3-2.5,2.93,2.93,0,0,1,3.3,2.5"/></g><g clip-path="url(#clip-path)"><path d="M102.9,66.3h-.3a2.51,2.51,0,0,0,.3,5h.3a2.53,2.53,0,0,0,1.7-1,2.38,2.38,0,0,0,.5-1.8,2.56,2.56,0,0,0-2.5-2.2m0,5.8a3.35,3.35,0,0,1-3.3-2.9,3.52,3.52,0,0,1,2.9-3.8h.4a3.35,3.35,0,0,1,3.3,2.9,3.22,3.22,0,0,1-.7,2.5,3.16,3.16,0,0,1-2.2,1.3h-.4"/></g><g clip-path="url(#clip-path)"><path d="M97.7,52.9a2.93,2.93,0,1,1-3.3-2.5,2.93,2.93,0,0,1,3.3,2.5"/></g><g clip-path="url(#clip-path)"><path d="M94.8,50.8h-.3a2.14,2.14,0,0,0-1.6,1,2.38,2.38,0,0,0-.5,1.8,2.58,2.58,0,0,0,2.5,2.2h.3A2.42,2.42,0,0,0,97.3,53a2.56,2.56,0,0,0-2.5-2.2m0,5.8a3.35,3.35,0,0,1-3.3-2.9,3.22,3.22,0,0,1,.7-2.5,3.38,3.38,0,0,1,2.2-1.3h.4a3.35,3.35,0,0,1,3.3,2.9,3.52,3.52,0,0,1-2.9,3.8h-.4"/></g><polygon points="88.3 19.8 92.6 21.6 93 20.8 88.6 19 88.3 19.8"/><rect x="71.59" y="27.59" width="17" height="0.9" transform="translate(15.45 83.02) rotate(-59.68)"/><polygon points="78.1 48.8 75 41 75.8 40.7 78.9 48.4 78.1 48.8"/><rect x="86.68" y="47.39" width="0.9" height="9.4" transform="translate(28.51 134.97) rotate(-85.6)"/><rect x="98.61" y="55.09" width="0.9" height="11.7" transform="translate(-16.96 52.79) rotate(-27.58)"/><rect x="51.3" y="78.4" width="50.7" height="0.9" transform="translate(-21.94 30.14) rotate(-19.52)"/><rect x="26.8" y="95.98" width="22.7" height="0.9" transform="translate(-46.94 37.14) rotate(-33.55)"/><rect x="19.01" y="87.84" width="29.8" height="0.9" transform="translate(-60.36 80.64) rotate(-64.35)"/><rect x="41.89" y="60.9" width="37.6" height="0.9" transform="translate(-22.07 36.91) rotate(-28.86)"/></svg>