<svg xmlns="http://www.w3.org/2000/svg" xmlns:xlink="http://www.w3.org/1999/xlink" viewBox="0 0 131.4 131.4"><defs><clipPath id="clip-path"><rect width="131.4" height="131.4" fill="svgcolor"/></clipPath></defs><g clip-path="url(#clip-path)"><path d="M65.7,131.4A65.7,65.7,0,1,0,0,65.7a65.68,65.68,0,0,0,65.7,65.7" fill="#fabdb1"/></g><g clip-path="url(#clip-path)"><path d="M78.1,31.2a3.86,3.86,0,1,1-4.5-3.1,3.86,3.86,0,0,1,4.5,3.1"/></g><g clip-path="url(#clip-path)"><path d="M73.8,28.7a3.15,3.15,0,0,0-2.6,3.8A3.2,3.2,0,0,0,75,35.1a3.15,3.15,0,0,0,2.6-3.8,3.41,3.41,0,0,0-3.8-2.6m1.3,7.6a4.41,4.41,0,1,1,3.6-5.1,4.53,4.53,0,0,1-3.6,5.1"/></g><g clip-path="url(#clip-path)"><path d="M107.1,47.2a3.86,3.86,0,1,1-4.5-3.1,3.76,3.76,0,0,1,4.5,3.1"/></g><g clip-path="url(#clip-path)"><path d="M102.8,44.6a3.26,3.26,0,1,0,3.8,2.6,3.3,3.3,0,0,0-3.8-2.6m1.3,7.6a4.41,4.41,0,1,1,3.6-5.1,4.42,4.42,0,0,1-3.6,5.1"/></g><g clip-path="url(#clip-path)"><path d="M100.1,84.6a3.86,3.86,0,1,1-4.5-3.1,3.86,3.86,0,0,1,4.5,3.1"/></g><g clip-path="url(#clip-path)"><path d="M95.8,82.1A3.26,3.26,0,0,0,97,88.5a3.2,3.2,0,0,0,2.6-3.8,3.3,3.3,0,0,0-3.8-2.6m1.3,7.6a4.41,4.41,0,1,1,3.6-5.1,4.42,4.42,0,0,1-3.6,5.1"/></g><g clip-path="url(#clip-path)"><path d="M63,54.7a3.86,3.86,0,1,1-4.5-3.1A3.81,3.81,0,0,1,63,54.7"/></g><g clip-path="url(#clip-path)"><path d="M58.7,52.2A3.15,3.15,0,0,0,56.1,56a3.2,3.2,0,0,0,3.8,2.6,3.15,3.15,0,0,0,2.6-3.8,3.27,3.27,0,0,0-3.8-2.6M60,59.7a4.41,4.41,0,1,1,3.6-5.1A4.42,4.42,0,0,1,60,59.7"/></g><g clip-path="url(#clip-path)"><path d="M48.3,64.7a3.86,3.86,0,1,1-4.5-3.1,3.86,3.86,0,0,1,4.5,3.1"/></g><g clip-path="url(#clip-path)"><path d="M43.9,62.2a3.26,3.26,0,1,0,3.8,2.6,3.15,3.15,0,0,0-3.8-2.6m1.4,7.5a4.41,4.41,0,1,1,3.6-5.1,4.42,4.42,0,0,1-3.6,5.1"/></g><g clip-path="url(#clip-path)"><path d="M38.8,54.9a3.86,3.86,0,1,1-4.5-3.1,3.86,3.86,0,0,1,4.5,3.1"/></g><g clip-path="url(#clip-path)"><path d="M34.4,52.3a3.26,3.26,0,1,0,3.8,2.6,3.3,3.3,0,0,0-3.8-2.6m1.4,7.6a4.41,4.41,0,1,1,3.6-5.1,4.47,4.47,0,0,1-3.6,5.1"/></g><g clip-path="url(#clip-path)"><path d="M70,99.7a3.86,3.86,0,1,1-4.5-3.1A3.86,3.86,0,0,1,70,99.7"/></g><g clip-path="url(#clip-path)"><path d="M65.6,97.2a3.26,3.26,0,1,0,3.8,2.6,3.15,3.15,0,0,0-3.8-2.6m1.4,7.5a4.41,4.41,0,1,1,3.6-5.1,4.42,4.42,0,0,1-3.6,5.1"/></g><rect x="88.12" y="27.02" width="1.1" height="25.2" transform="translate(12.61 100.02) rotate(-62.53)"/><rect x="85.7" y="66.05" width="30.2" height="1.1" transform="translate(17.19 153.81) rotate(-79.66)"/><polygon points="93.8 82.1 74.5 35.9 75.5 35.5 94.8 81.6 93.8 82.1"/><rect x="68.8" y="92.29" width="25.3" height="1.1" transform="translate(-32.83 46) rotate(-26.45)"/><polygon points="61.9 51.8 60.9 51.3 70.7 34.4 71.7 34.9 61.9 51.8"/><rect x="46.8" y="59.99" width="10.1" height="1.1" transform="translate(-24.36 37.19) rotate(-32.39)"/><rect x="38.79" y="57.39" width="1.1" height="5.9" transform="translate(-29.99 40.81) rotate(-41.16)"/></svg>