<svg xmlns="http://www.w3.org/2000/svg" xmlns:xlink="http://www.w3.org/1999/xlink" viewBox="0 0 131.4 131.4"><defs><clipPath id="clip-path"><rect width="131.4" height="131.4" fill="svgcolor"/></clipPath></defs><g clip-path="url(#clip-path)"><path d="M65.7,131.4A65.7,65.7,0,1,0,0,65.7a65.68,65.68,0,0,0,65.7,65.7" fill="#fabdb1"/></g><g clip-path="url(#clip-path)"><path d="M33.5,53.4a2.85,2.85,0,1,1-2.1-5.3,2.92,2.92,0,0,1,3.7,1.6,2.8,2.8,0,0,1-1.6,3.7"/></g><g clip-path="url(#clip-path)"><path d="M34.8,49.9A2.41,2.41,0,1,0,33.4,53a2.54,2.54,0,0,0,1.4-3.1m-5.4,2a3.26,3.26,0,0,1,1.9-4.2,3.18,3.18,0,0,1,4.2,1.9,3.26,3.26,0,0,1-1.9,4.2,3.33,3.33,0,0,1-4.2-1.9"/></g><g clip-path="url(#clip-path)"><path d="M49.9,50.2a2.85,2.85,0,1,1-2.1-5.3,2.92,2.92,0,0,1,3.7,1.6,2.84,2.84,0,0,1-1.6,3.7"/></g><g clip-path="url(#clip-path)"><path d="M51.1,46.7a2.41,2.41,0,1,0-1.4,3.1,2.29,2.29,0,0,0,1.4-3.1m-5.3,2.1a3.26,3.26,0,0,1,1.9-4.2,3.18,3.18,0,0,1,4.2,1.9A3.26,3.26,0,0,1,50,50.7a3.38,3.38,0,0,1-4.2-1.9"/></g><g clip-path="url(#clip-path)"><path d="M61.3,48a2.85,2.85,0,1,1-2.1-5.3,2.92,2.92,0,0,1,3.7,1.6A2.8,2.8,0,0,1,61.3,48"/></g><g clip-path="url(#clip-path)"><path d="M62.6,44.4a2.41,2.41,0,1,0-1.4,3.1,2.44,2.44,0,0,0,1.4-3.1m-5.4,2.1a3.26,3.26,0,0,1,1.9-4.2,3.18,3.18,0,0,1,4.2,1.9,3.26,3.26,0,0,1-1.9,4.2,3.33,3.33,0,0,1-4.2-1.9"/></g><g clip-path="url(#clip-path)"><path d="M80.6,41.2a2.85,2.85,0,1,1-2.1-5.3,2.92,2.92,0,0,1,3.7,1.6,2.88,2.88,0,0,1-1.6,3.7"/></g><g clip-path="url(#clip-path)"><path d="M81.8,37.6a2.41,2.41,0,1,0-1.4,3.1,2.29,2.29,0,0,0,1.4-3.1m-5.3,2.1a3.26,3.26,0,0,1,1.9-4.2,3.18,3.18,0,0,1,4.2,1.9,3.26,3.26,0,0,1-6.1,2.3"/></g><g clip-path="url(#clip-path)"><path d="M83,33.4a2.85,2.85,0,0,1-2.1-5.3,2.92,2.92,0,0,1,3.7,1.6A2.88,2.88,0,0,1,83,33.4"/></g><g clip-path="url(#clip-path)"><path d="M84.2,29.8a2.41,2.41,0,1,0-1.4,3.1,2.29,2.29,0,0,0,1.4-3.1m-5.3,2.1a3.26,3.26,0,0,1,1.9-4.2A3.18,3.18,0,0,1,85,29.6a3.26,3.26,0,0,1-6.1,2.3"/></g><g clip-path="url(#clip-path)"><path d="M91.3,32.4a2.85,2.85,0,0,1-2.1-5.3,2.85,2.85,0,1,1,2.1,5.3"/></g><g clip-path="url(#clip-path)"><path d="M92.5,28.8a2.41,2.41,0,1,0-1.4,3.1,2.29,2.29,0,0,0,1.4-3.1m-5.3,2.1a3.26,3.26,0,0,1,1.9-4.2,3.18,3.18,0,0,1,4.2,1.9,3.26,3.26,0,0,1-6.1,2.3"/></g><g clip-path="url(#clip-path)"><path d="M45.7,59.5a2.85,2.85,0,1,1-2.1-5.3,2.92,2.92,0,0,1,3.7,1.6,2.77,2.77,0,0,1-1.6,3.7"/></g><g clip-path="url(#clip-path)"><path d="M47,56a2.41,2.41,0,1,0-1.4,3.1A2.37,2.37,0,0,0,47,56m-5.4,2.1a3.26,3.26,0,0,1,1.9-4.2,3.18,3.18,0,0,1,4.2,1.9A3.26,3.26,0,0,1,45.8,60a3.33,3.33,0,0,1-4.2-1.9"/></g><g clip-path="url(#clip-path)"><path d="M61.6,67.4a2.85,2.85,0,1,1-2.1-5.3,2.85,2.85,0,0,1,2.1,5.3"/></g><g clip-path="url(#clip-path)"><path d="M62.8,63.8a2.41,2.41,0,1,0-1.4,3.1,2.41,2.41,0,0,0,1.4-3.1m-5.3,2.1a3.26,3.26,0,0,1,1.9-4.2,3.18,3.18,0,0,1,4.2,1.9,3.26,3.26,0,0,1-1.9,4.2,3.34,3.34,0,0,1-4.2-1.9"/></g><g clip-path="url(#clip-path)"><path d="M68,73.3A2.85,2.85,0,0,1,65.9,68a2.92,2.92,0,0,1,3.7,1.6A2.83,2.83,0,0,1,68,73.3"/></g><g clip-path="url(#clip-path)"><path d="M69.2,69.7a2.41,2.41,0,1,0-1.4,3.1,2.29,2.29,0,0,0,1.4-3.1m-5.3,2.1a3.26,3.26,0,0,1,1.9-4.2A3.18,3.18,0,0,1,70,69.5a3.26,3.26,0,0,1-1.9,4.2,3.33,3.33,0,0,1-4.2-1.9"/></g><g clip-path="url(#clip-path)"><path d="M83.2,88.6a2.85,2.85,0,0,1-2.1-5.3,2.92,2.92,0,0,1,3.7,1.6,2.8,2.8,0,0,1-1.6,3.7"/></g><g clip-path="url(#clip-path)"><path d="M84.5,85.1a2.41,2.41,0,1,0-1.4,3.1,2.44,2.44,0,0,0,1.4-3.1m-5.4,2A3.26,3.26,0,0,1,81,82.9a3.18,3.18,0,0,1,4.2,1.9,3.26,3.26,0,0,1-6.1,2.3"/></g><g clip-path="url(#clip-path)"><path d="M89.5,96.8a2.85,2.85,0,0,1-2.1-5.3,2.92,2.92,0,0,1,3.7,1.6,2.83,2.83,0,0,1-1.6,3.7"/></g><g clip-path="url(#clip-path)"><path d="M90.8,93.2a2.41,2.41,0,1,0-1.4,3.1,2.49,2.49,0,0,0,1.4-3.1m-5.4,2.1a3.26,3.26,0,0,1,1.9-4.2A3.18,3.18,0,0,1,91.5,93a3.26,3.26,0,0,1-1.9,4.2,3.33,3.33,0,0,1-4.2-1.9"/></g><g clip-path="url(#clip-path)"><path d="M97.3,99.2a2.85,2.85,0,1,1,1.6-3.7,2.8,2.8,0,0,1-1.6,3.7"/></g><g clip-path="url(#clip-path)"><path d="M98.6,95.6a2.41,2.41,0,1,0-1.4,3.1,2.49,2.49,0,0,0,1.4-3.1m-5.4,2.1a3.26,3.26,0,0,1,1.9-4.2,3.26,3.26,0,0,1,2.3,6.1,3.33,3.33,0,0,1-4.2-1.9"/></g><g clip-path="url(#clip-path)"><path d="M97.6,107.9a2.85,2.85,0,1,1,1.6-3.7,2.92,2.92,0,0,1-1.6,3.7"/></g><g clip-path="url(#clip-path)"><path d="M98.8,104.3a2.41,2.41,0,1,0-1.4,3.1,2.29,2.29,0,0,0,1.4-3.1m-5.3,2.1a3.26,3.26,0,0,1,1.9-4.2,3.26,3.26,0,1,1,2.3,6.1,3.26,3.26,0,0,1-4.2-1.9"/></g><g clip-path="url(#clip-path)"><path d="M89,110.9a2.85,2.85,0,1,1-2.1-5.3,2.92,2.92,0,0,1,3.7,1.6,2.83,2.83,0,0,1-1.6,3.7"/></g><g clip-path="url(#clip-path)"><path d="M90.3,107.3a2.41,2.41,0,1,0-1.4,3.1,2.44,2.44,0,0,0,1.4-3.1m-5.4,2.1a3.26,3.26,0,0,1,1.9-4.2,3.18,3.18,0,0,1,4.2,1.9,3.26,3.26,0,0,1-1.9,4.2,3.33,3.33,0,0,1-4.2-1.9"/></g><g clip-path="url(#clip-path)"><path d="M83.2,103.7a2.85,2.85,0,1,1-2.1-5.3,2.92,2.92,0,0,1,3.7,1.6,2.8,2.8,0,0,1-1.6,3.7"/></g><g clip-path="url(#clip-path)"><path d="M84.5,100.2a2.41,2.41,0,1,0-1.4,3.1,2.44,2.44,0,0,0,1.4-3.1m-5.4,2A3.26,3.26,0,0,1,81,98a3.18,3.18,0,0,1,4.2,1.9,3.26,3.26,0,0,1-6.1,2.3"/></g><rect x="85.1" y="29.7" width="2.4" height="0.8" transform="translate(-2.73 9.42) rotate(-6.15)"/><polygon points="80.2 35.5 81 35.7 81.5 33.5 80.7 33.3 80.2 35.5"/><rect x="62.7" y="41.6" width="14.6" height="0.8" transform="translate(-10.11 26.3) rotate(-19.88)"/><rect x="52" y="46.2" width="5.6" height="0.8" transform="translate(-8.49 12.41) rotate(-12)"/><rect x="35.3" y="48.8" width="10.7" height="0.8" transform="translate(-9.22 9.37) rotate(-11.82)"/><rect x="38.32" y="49.93" width="0.8" height="7.6" transform="translate(-26.89 62.78) rotate(-62.08)"/><polygon points="57.5 63.8 47.2 58.8 47.5 58 57.9 63 57.5 63.8"/><rect x="63.41" y="66.22" width="0.8" height="2.8" transform="translate(-29.15 68.74) rotate(-47.35)"/><rect x="73.98" y="70.52" width="0.8" height="15.5" transform="translate(-33.51 73.88) rotate(-44.13)"/><rect x="84.59" y="87.8" width="0.8" height="4.4" transform="translate(-36.84 68.07) rotate(-36.44)"/><rect x="91.92" y="94.46" width="0.8" height="2.3" transform="translate(-25.9 156.34) rotate(-73.2)"/><rect x="96.4" y="99.4" width="0.8" height="2.8" transform="translate(-11.52 12.5) rotate(-6.97)"/><rect x="90.59" y="106.8" width="3.4" height="0.8" transform="matrix(0.96, -0.27, 0.27, 0.96, -25.44, 28.79)"/><polygon points="83.5 103.7 85.3 106.3 86 105.8 84.2 103.2 83.5 103.7"/><rect x="83.51" y="97.04" width="3.5" height="0.8" transform="translate(-44.2 99.18) rotate(-49.59)"/></svg>