<svg xmlns="http://www.w3.org/2000/svg" xmlns:xlink="http://www.w3.org/1999/xlink" viewBox="0 0 131.4 131.4"><defs><clipPath id="clip-path"><rect width="131.4" height="131.4" fill="svgcolor"/></clipPath></defs><g clip-path="url(#clip-path)"><path d="M65.7,131.4A65.7,65.7,0,1,0,0,65.7a65.68,65.68,0,0,0,65.7,65.7" fill="#fabdb1"/></g><g clip-path="url(#clip-path)"><path d="M35.6,28.2a3.38,3.38,0,1,1-4.3-2.1,3.35,3.35,0,0,1,4.3,2.1"/></g><g clip-path="url(#clip-path)"><path d="M31.5,26.6a2.91,2.91,0,1,0,3.7,1.8,3,3,0,0,0-3.7-1.8M33.6,33A3.86,3.86,0,1,1,36,28.1,3.72,3.72,0,0,1,33.6,33"/></g><g clip-path="url(#clip-path)"><path d="M26.1,36.6a3.38,3.38,0,1,1-4.3-2.1,3.43,3.43,0,0,1,4.3,2.1"/></g><g clip-path="url(#clip-path)"><path d="M22,35a2.83,2.83,0,0,0-1.8,3.6,2.91,2.91,0,1,0,5.5-1.9A3,3,0,0,0,22,35m2.2,6.4a3.86,3.86,0,1,1,2.4-4.9,3.87,3.87,0,0,1-2.4,4.9"/></g><g clip-path="url(#clip-path)"><path d="M44.5,62.2a3.38,3.38,0,1,1-4.3-2.1,3.43,3.43,0,0,1,4.3,2.1"/></g><g clip-path="url(#clip-path)"><path d="M40.4,60.6a2.9,2.9,0,0,0-1.8,3.7,2.94,2.94,0,0,0,3.7,1.8,2.9,2.9,0,0,0,1.8-3.7,3,3,0,0,0-3.7-1.8M42.6,67A3.86,3.86,0,1,1,45,62.1,3.87,3.87,0,0,1,42.6,67"/></g><g clip-path="url(#clip-path)"><path d="M30.7,77.5a3.38,3.38,0,1,1-4.3-2.1,3.43,3.43,0,0,1,4.3,2.1"/></g><g clip-path="url(#clip-path)"><path d="M26.6,75.9a2.94,2.94,0,0,0-1.8,3.7,2.9,2.9,0,0,0,3.7,1.8,2.86,2.86,0,0,0,1.8-3.7,3,3,0,0,0-3.7-1.8m2.2,6.4a3.86,3.86,0,1,1,2.4-4.9,3.87,3.87,0,0,1-2.4,4.9"/></g><g clip-path="url(#clip-path)"><path d="M40.4,90.2a3.38,3.38,0,1,1-4.3-2.1,3.35,3.35,0,0,1,4.3,2.1"/></g><g clip-path="url(#clip-path)"><path d="M36.3,88.6A2.91,2.91,0,1,0,40,90.4a3,3,0,0,0-3.7-1.8M38.5,95a3.86,3.86,0,1,1,2.4-4.9A3.87,3.87,0,0,1,38.5,95"/></g><g clip-path="url(#clip-path)"><path d="M60,66a3.38,3.38,0,1,1-4.3-2.1A3.31,3.31,0,0,1,60,66"/></g><g clip-path="url(#clip-path)"><path d="M55.8,64.3a2.91,2.91,0,1,0,1.9,5.5,2.91,2.91,0,0,0-1.9-5.5M58,70.7a3.86,3.86,0,1,1,2.4-4.9A3.87,3.87,0,0,1,58,70.7"/></g><g clip-path="url(#clip-path)"><path d="M85.5,52.6a3.38,3.38,0,1,1-4.3-2.1,3.31,3.31,0,0,1,4.3,2.1"/></g><g clip-path="url(#clip-path)"><path d="M81.4,50.9a2.91,2.91,0,1,0,3.7,1.8,2.94,2.94,0,0,0-3.7-1.8m2.2,6.4A3.86,3.86,0,1,1,86,52.4a3.87,3.87,0,0,1-2.4,4.9"/></g><g clip-path="url(#clip-path)"><path d="M101.9,22.9a3.38,3.38,0,1,1-4.3-2.1,3.43,3.43,0,0,1,4.3,2.1"/></g><g clip-path="url(#clip-path)"><path d="M97.8,21.3A2.9,2.9,0,0,0,96,25a2.91,2.91,0,1,0,5.5-1.9,3,3,0,0,0-3.7-1.8m2.2,6.4a3.86,3.86,0,1,1,2.4-4.9,3.87,3.87,0,0,1-2.4,4.9"/></g><g clip-path="url(#clip-path)"><path d="M94.2,69.4a3.38,3.38,0,1,1-4.3-2.1,3.43,3.43,0,0,1,4.3,2.1"/></g><g clip-path="url(#clip-path)"><path d="M90.1,67.8a2.91,2.91,0,1,0,3.7,1.8,3,3,0,0,0-3.7-1.8m2.2,6.4a3.86,3.86,0,1,1,2.4-4.9,3.87,3.87,0,0,1-2.4,4.9"/></g><g clip-path="url(#clip-path)"><path d="M111.9,70.1a3.38,3.38,0,1,1-4.3-2.1,3.39,3.39,0,0,1,4.3,2.1"/></g><g clip-path="url(#clip-path)"><path d="M107.7,68.5a2.91,2.91,0,1,0,3.7,1.8,2.94,2.94,0,0,0-3.7-1.8m2.2,6.4a3.86,3.86,0,1,1,2.4-4.9,3.79,3.79,0,0,1-2.4,4.9"/></g><g clip-path="url(#clip-path)"><path d="M95.5,88.8a3.38,3.38,0,1,1-4.3-2.1,3.35,3.35,0,0,1,4.3,2.1"/></g><g clip-path="url(#clip-path)"><path d="M91.4,87.2a2.94,2.94,0,0,0-1.8,3.7,2.9,2.9,0,0,0,3.7,1.8A2.94,2.94,0,0,0,95.1,89a3,3,0,0,0-3.7-1.8m2.2,6.4A3.86,3.86,0,1,1,96,88.7a3.87,3.87,0,0,1-2.4,4.9"/></g><g clip-path="url(#clip-path)"><path d="M104.6,101.6a3.38,3.38,0,1,1-4.3-2.1,3.39,3.39,0,0,1,4.3,2.1"/></g><g clip-path="url(#clip-path)"><path d="M100.4,100a2.91,2.91,0,1,0,3.7,1.8,2.79,2.79,0,0,0-3.7-1.8m2.2,6.3a3.86,3.86,0,1,1,2.4-4.9,3.76,3.76,0,0,1-2.4,4.9"/></g><rect x="24.72" y="32.88" width="6.2" height="1" transform="translate(-15.52 30.24) rotate(-46.05)"/><polygon points="38.3 61 24.1 40.7 25 40.1 39.1 60.4 38.3 61"/><rect x="48.53" y="61.03" width="1" height="9.1" transform="translate(-23.86 102.89) rotate(-80.32)"/><polygon points="30.2 76.6 29.5 75.9 38.6 65.5 39.4 66.2 30.2 76.6"/><rect x="31.99" y="79.78" width="1" height="9.5" transform="translate(-43.91 35.92) rotate(-36.51)"/><rect x="58.7" y="60.41" width="22.1" height="1" transform="translate(-20.24 39.07) rotate(-27.49)"/><rect x="77.33" y="38.72" width="27.2" height="1" transform="translate(13.02 100.35) rotate(-61.45)"/><rect x="86.3" y="55.8" width="1" height="12.3" transform="translate(-18.23 43.48) rotate(-25.54)"/><rect x="99.37" y="65.35" width="1" height="11.1" transform="translate(24.23 167.23) rotate(-87.23)"/><polygon points="90.6 74 91.4 86.5 92.4 86.5 91.6 74 90.6 74"/><rect x="96.11" y="91.89" width="1" height="8.6" transform="translate(-36.97 68.91) rotate(-33.33)"/></svg>