<svg xmlns="http://www.w3.org/2000/svg" xmlns:xlink="http://www.w3.org/1999/xlink" viewBox="0 0 131.4 131.4"><defs><clipPath id="clip-path"><rect width="131.4" height="131.4" fill="svgcolor"/></clipPath></defs><g clip-path="url(#clip-path)"><path d="M65.7,131.4A65.7,65.7,0,1,0,0,65.7a65.68,65.68,0,0,0,65.7,65.7" fill="#fabdb1"/></g><g clip-path="url(#clip-path)"><path d="M41.2,82.1a3.51,3.51,0,1,1-4.1-2.8,3.41,3.41,0,0,1,4.1,2.8"/></g><g clip-path="url(#clip-path)"><path d="M37.3,79.8a3,3,0,1,0,3.5,2.4,3.09,3.09,0,0,0-3.5-2.4m1.2,6.9A4,4,0,1,1,41.7,82a4,4,0,0,1-3.2,4.7"/></g><g clip-path="url(#clip-path)"><path d="M34.3,88.3a3.51,3.51,0,1,1-4.1-2.8,3.48,3.48,0,0,1,4.1,2.8"/></g><g clip-path="url(#clip-path)"><path d="M30.4,86A3,3,0,0,0,28,89.5a2.92,2.92,0,0,0,3.5,2.4A3,3,0,0,0,30.4,86m1.2,6.9a4,4,0,1,1,3.2-4.7,4,4,0,0,1-3.2,4.7"/></g><g clip-path="url(#clip-path)"><path d="M29.5,95.9a3.59,3.59,0,0,1-2.8,4.1,3.51,3.51,0,0,1-4.1-2.8,3.51,3.51,0,1,1,6.9-1.3"/></g><g clip-path="url(#clip-path)"><path d="M25.5,93.6A3,3,0,1,0,29,96a3,3,0,0,0-3.5-2.4m1.3,6.9A4,4,0,1,1,30,95.8a4.08,4.08,0,0,1-3.2,4.7"/></g><g clip-path="url(#clip-path)"><path d="M37.4,104.9a3.51,3.51,0,1,1-4.1-2.8,3.48,3.48,0,0,1,4.1,2.8"/></g><g clip-path="url(#clip-path)"><path d="M33.5,102.6A3,3,0,1,0,37,105a3.09,3.09,0,0,0-3.5-2.4m1.2,6.9a4,4,0,1,1-1.5-7.9,4.13,4.13,0,0,1,4.7,3.2,4,4,0,0,1-3.2,4.7"/></g><g clip-path="url(#clip-path)"><path d="M54.7,103.2a3.51,3.51,0,1,1-4.1-2.8,3.41,3.41,0,0,1,4.1,2.8"/></g><g clip-path="url(#clip-path)"><path d="M50.8,100.9a3,3,0,1,0,3.5,2.4,3,3,0,0,0-3.5-2.4m1.2,6.9a4,4,0,1,1,3.2-4.7,4,4,0,0,1-3.2,4.7"/></g><g clip-path="url(#clip-path)"><path d="M65.1,99.7A3.51,3.51,0,1,1,61,96.9a3.53,3.53,0,0,1,4.1,2.8"/></g><g clip-path="url(#clip-path)"><path d="M61.1,97.4a3,3,0,1,0,3.5,2.4,3,3,0,0,0-3.5-2.4m1.3,6.9a4,4,0,1,1,3.2-4.7,4.08,4.08,0,0,1-3.2,4.7"/></g><g clip-path="url(#clip-path)"><path d="M68.6,84.2a3.51,3.51,0,1,1-4.1-2.8,3.51,3.51,0,0,1,4.1,2.8"/></g><g clip-path="url(#clip-path)"><path d="M64.6,81.8a3,3,0,1,0,3.5,2.4,3.12,3.12,0,0,0-3.5-2.4m1.2,7A4,4,0,1,1,69,84.1a3.93,3.93,0,0,1-3.2,4.7"/></g><g clip-path="url(#clip-path)"><path d="M69.6,71a3.51,3.51,0,1,1-4.1-2.8A3.53,3.53,0,0,1,69.6,71"/></g><g clip-path="url(#clip-path)"><path d="M65.6,68.7a3,3,0,1,0,3.5,2.4,3,3,0,0,0-3.5-2.4m1.3,6.9a4,4,0,1,1,3.2-4.7,4.08,4.08,0,0,1-3.2,4.7"/></g><g clip-path="url(#clip-path)"><path d="M79.3,52a3.51,3.51,0,1,1-4.1-2.8A3.51,3.51,0,0,1,79.3,52"/></g><g clip-path="url(#clip-path)"><path d="M75.3,49.7a3,3,0,1,0,3.5,2.4,3,3,0,0,0-3.5-2.4m1.2,6.9a4,4,0,1,1,3.2-4.7,4.08,4.08,0,0,1-3.2,4.7"/></g><g clip-path="url(#clip-path)"><path d="M85.2,44.7a3.51,3.51,0,1,1-4.1-2.8,3.59,3.59,0,0,1,4.1,2.8"/></g><g clip-path="url(#clip-path)"><path d="M81.2,42.4a3,3,0,1,0,3.5,2.4,3,3,0,0,0-3.5-2.4m1.2,6.9a4,4,0,0,1-1.5-7.9,4.13,4.13,0,0,1,4.7,3.2,4.05,4.05,0,0,1-3.2,4.7"/></g><g clip-path="url(#clip-path)"><path d="M93.8,40.6A3.59,3.59,0,0,1,91,44.7a3.51,3.51,0,0,1-4.1-2.8,3.59,3.59,0,0,1,2.8-4.1,3.46,3.46,0,0,1,4.1,2.8"/></g><g clip-path="url(#clip-path)"><path d="M89.8,38.3a3,3,0,1,0,3.5,2.4,3,3,0,0,0-3.5-2.4m1.3,6.9a4,4,0,1,1-1.5-7.9,4.13,4.13,0,0,1,4.7,3.2,4,4,0,0,1-3.2,4.7"/></g><g clip-path="url(#clip-path)"><path d="M110.4,33.3a3.51,3.51,0,1,1-4.1-2.8,3.53,3.53,0,0,1,4.1,2.8"/></g><g clip-path="url(#clip-path)"><path d="M106.4,31a3,3,0,1,0,3.5,2.4,3,3,0,0,0-3.5-2.4m1.3,6.9a4,4,0,1,1,3.2-4.7,4.08,4.08,0,0,1-3.2,4.7"/></g><g clip-path="url(#clip-path)"><path d="M106.9,22.3a3.51,3.51,0,1,1-4.1-2.8,3.41,3.41,0,0,1,4.1,2.8"/></g><g clip-path="url(#clip-path)"><path d="M103,20a3,3,0,1,0,3.5,2.4A3,3,0,0,0,103,20m1.2,6.9a4,4,0,0,1-1.5-7.9,4.13,4.13,0,0,1,4.7,3.2,3.93,3.93,0,0,1-3.2,4.7"/></g><g clip-path="url(#clip-path)"><path d="M95.5,19.9a3.51,3.51,0,1,1-4.1-2.8,3.35,3.35,0,0,1,4.1,2.8"/></g><g clip-path="url(#clip-path)"><path d="M91.6,17.5a3,3,0,1,0,3.5,2.4,3,3,0,0,0-3.5-2.4m1.2,6.9A4,4,0,1,1,96,19.7a4,4,0,0,1-3.2,4.7"/></g><g clip-path="url(#clip-path)"><path d="M110.8,45.4a3.59,3.59,0,0,1-2.8,4.1,3.51,3.51,0,0,1-4.1-2.8,3.51,3.51,0,1,1,6.9-1.3"/></g><g clip-path="url(#clip-path)"><path d="M106.8,43.1a3,3,0,1,0,3.5,2.4,3.09,3.09,0,0,0-3.5-2.4M108,50a4,4,0,0,1-1.5-7.9,4.13,4.13,0,0,1,4.7,3.2A3.93,3.93,0,0,1,108,50"/></g><g clip-path="url(#clip-path)"><path d="M109.4,58.6a3.51,3.51,0,1,1-4.1-2.8,3.51,3.51,0,0,1,4.1,2.8"/></g><g clip-path="url(#clip-path)"><path d="M105.4,56.3a3,3,0,1,0,3.5,2.4,3,3,0,0,0-3.5-2.4m1.2,6.9a4,4,0,1,1,3.2-4.7,3.93,3.93,0,0,1-3.2,4.7"/></g><rect x="33.09" y="85.29" width="2.3" height="1" transform="translate(-50.7 49.49) rotate(-45.1)"/><rect x="27.29" y="92.17" width="2.1" height="1" transform="translate(-60.43 53.8) rotate(-49.35)"/><polygon points="31 103.6 27.5 99.9 28.3 99.2 31.7 102.9 31 103.6"/><rect x="37.3" y="104.59" width="10.1" height="1" transform="translate(-12.74 6.08) rotate(-7.14)"/><polygon points="54.6 102.7 54.9 103.7 58.5 102.6 58.2 101.6 54.6 102.7"/><rect x="59.48" y="92.06" width="8.9" height="1" transform="translate(-38.7 138.61) rotate(-79.53)"/><rect x="62.47" y="77.47" width="5.8" height="1" transform="translate(-17.57 136.92) rotate(-85.43)"/><rect x="63.33" y="61.39" width="14.1" height="1" transform="translate(-16.18 97.84) rotate(-63.88)"/><rect x="77.35" y="48.29" width="2.1" height="1" transform="translate(-9.98 75.54) rotate(-48.73)"/><rect x="84.91" y="42.6" width="2.2" height="1" transform="translate(-9.9 50.59) rotate(-31.08)"/><rect x="93.1" y="36.99" width="11.6" height="1" transform="translate(-6.75 42.54) rotate(-23.5)"/><polygon points="95.6 21.3 100.2 22.2 100.4 21.2 95.8 20.3 95.6 21.3"/><rect x="105.5" y="25.7" width="1" height="4.9" transform="translate(-3.65 25.84) rotate(-13.67)"/><rect x="105.08" y="39.26" width="4.9" height="1" transform="translate(66.7 146.89) rotate(-89.43)"/><rect x="103.86" y="52.09" width="6.1" height="1" transform="translate(45.71 154.82) rotate(-85.28)"/></svg>