<svg xmlns="http://www.w3.org/2000/svg" xmlns:xlink="http://www.w3.org/1999/xlink" viewBox="0 0 131.4 131.4"><defs><clipPath id="clip-path"><rect width="131.4" height="131.4" fill="svgcolor"/></clipPath></defs><g clip-path="url(#clip-path)"><path d="M65.7,131.4A65.7,65.7,0,1,0,0,65.7a65.68,65.68,0,0,0,65.7,65.7" fill="#fabdb1"/></g><g clip-path="url(#clip-path)"><path d="M39.6,28.4a2.5,2.5,0,1,1-2.5-2.5,2.48,2.48,0,0,1,2.5,2.5"/></g><g clip-path="url(#clip-path)"><path d="M37.1,26.3A2.14,2.14,0,0,0,35,28.5a2.2,2.2,0,0,0,2.1,2.2,2.14,2.14,0,0,0,2.1-2.2,2,2,0,0,0-2.1-2.2m0,5A2.9,2.9,0,1,1,40,28.4a2.9,2.9,0,0,1-2.9,2.9"/></g><g clip-path="url(#clip-path)"><path d="M27.8,50a2.5,2.5,0,1,1-2.5-2.5A2.48,2.48,0,0,1,27.8,50"/></g><g clip-path="url(#clip-path)"><path d="M25.3,47.9a2.14,2.14,0,0,0-2.1,2.2,2.2,2.2,0,0,0,2.1,2.2,2.14,2.14,0,0,0,2.1-2.2,2,2,0,0,0-2.1-2.2m0,5A2.9,2.9,0,1,1,28.2,50a2.9,2.9,0,0,1-2.9,2.9"/></g><g clip-path="url(#clip-path)"><path d="M52.4,42.7a2.5,2.5,0,1,1-2.5-2.5,2.48,2.48,0,0,1,2.5,2.5"/></g><g clip-path="url(#clip-path)"><path d="M49.9,40.6a2.14,2.14,0,0,0-2.1,2.2A2.2,2.2,0,0,0,49.9,45a2.2,2.2,0,0,0,0-4.4m0,5a2.9,2.9,0,1,1,2.9-2.9,2.9,2.9,0,0,1-2.9,2.9"/></g><g clip-path="url(#clip-path)"><path d="M61.4,58.5A2.5,2.5,0,1,1,58.9,56a2.54,2.54,0,0,1,2.5,2.5"/></g><g clip-path="url(#clip-path)"><path d="M58.8,56.3a2.14,2.14,0,0,0-2.1,2.2,2.1,2.1,0,1,0,4.2,0,2.07,2.07,0,0,0-2.1-2.2m0,5.1a2.9,2.9,0,1,1,2.9-2.9,2.9,2.9,0,0,1-2.9,2.9"/></g><g clip-path="url(#clip-path)"><path d="M68.5,62.7A2.5,2.5,0,1,1,66,60.2a2.36,2.36,0,0,1,2.5,2.5"/></g><g clip-path="url(#clip-path)"><path d="M66,60.5a2.14,2.14,0,0,0-2.1,2.2A2.11,2.11,0,0,0,66,64.8a2.2,2.2,0,0,0,2.1-2.2A2.11,2.11,0,0,0,66,60.5m0,5a2.9,2.9,0,1,1,2.9-2.9A2.9,2.9,0,0,1,66,65.5"/></g><g clip-path="url(#clip-path)"><path d="M72.3,69.8a2.5,2.5,0,1,1-2.5-2.5,2.48,2.48,0,0,1,2.5,2.5"/></g><g clip-path="url(#clip-path)"><path d="M69.8,67.6a2.1,2.1,0,1,0,2.1,2.1,2,2,0,0,0-2.1-2.1m0,5.1a2.9,2.9,0,1,1,2.9-2.9,2.9,2.9,0,0,1-2.9,2.9"/></g><g clip-path="url(#clip-path)"><path d="M57.7,66.3a2.5,2.5,0,1,1-2.5-2.5,2.48,2.48,0,0,1,2.5,2.5"/></g><g clip-path="url(#clip-path)"><path d="M55.2,64.2a2.1,2.1,0,1,0,2.1,2.1,2.11,2.11,0,0,0-2.1-2.1m0,5a2.9,2.9,0,1,1,2.9-2.9,2.9,2.9,0,0,1-2.9,2.9"/></g><g clip-path="url(#clip-path)"><path d="M91.6,76.1a2.5,2.5,0,1,1-2.5-2.5,2.48,2.48,0,0,1,2.5,2.5"/></g><g clip-path="url(#clip-path)"><path d="M89.1,74a2.1,2.1,0,1,0,2.1,2.1A2.05,2.05,0,0,0,89.1,74m0,5A2.9,2.9,0,1,1,92,76.1,2.9,2.9,0,0,1,89.1,79"/></g><g clip-path="url(#clip-path)"><path d="M104.9,81.1a2.5,2.5,0,1,1-2.5-2.5,2.48,2.48,0,0,1,2.5,2.5"/></g><g clip-path="url(#clip-path)"><path d="M102.4,79a2.1,2.1,0,1,0,0,4.2,2.18,2.18,0,0,0,2.1-2.1,2.05,2.05,0,0,0-2.1-2.1m0,5a2.9,2.9,0,1,1,2.9-2.9,2.9,2.9,0,0,1-2.9,2.9"/></g><g clip-path="url(#clip-path)"><path d="M109.6,92.4a2.5,2.5,0,1,1-2.5-2.5,2.48,2.48,0,0,1,2.5,2.5"/></g><g clip-path="url(#clip-path)"><path d="M107,90.3a2.1,2.1,0,1,0,2.1,2.1,2,2,0,0,0-2.1-2.1m0,5a2.9,2.9,0,1,1,2.9-2.9,2.9,2.9,0,0,1-2.9,2.9"/></g><rect x="42.97" y="28.12" width="0.8" height="14.7" transform="translate(-12.53 39.28) rotate(-43.17)"/><rect x="54.21" y="44" width="0.8" height="13.2" transform="translate(-17.92 33.81) rotate(-29.79)"/><rect x="61.88" y="59.14" width="0.8" height="3.5" transform="translate(-19.41 91.1) rotate(-64.65)"/><polygon points="66.8 65 68.3 67.7 69 67.3 67.5 64.6 66.8 65"/><rect x="79.09" y="65.49" width="0.7" height="15.2" transform="translate(-13.17 128.55) rotate(-73.54)"/><polygon points="100.1 80.6 91.4 77.5 91.7 76.8 100.4 79.9 100.1 80.6"/><polygon points="105.9 89.9 103 83.4 103.7 83.1 106.5 89.6 105.9 89.9"/><polygon points="67.2 70.2 57.3 68 57.4 67.3 67.4 69.4 67.2 70.2"/><rect x="39.72" y="44.22" width="0.7" height="28.8" transform="translate(-30.58 65.7) rotate(-61.37)"/></svg>