<svg xmlns="http://www.w3.org/2000/svg" xmlns:xlink="http://www.w3.org/1999/xlink" viewBox="0 0 131.4 131.4"><defs><clipPath id="clip-path"><rect width="131.4" height="131.4" fill="svgcolor"/></clipPath></defs><g clip-path="url(#clip-path)"><path d="M65.7,131.4A65.7,65.7,0,1,0,0,65.7a65.68,65.68,0,0,0,65.7,65.7" fill="#fabdb1"/></g><g clip-path="url(#clip-path)"><path d="M67.2,32.2A2.8,2.8,0,0,1,64.4,35a2.8,2.8,0,0,1,0-5.6,2.8,2.8,0,0,1,2.8,2.8"/></g><g clip-path="url(#clip-path)"><path d="M64.4,29.8a2.4,2.4,0,1,0,2.4,2.4,2.43,2.43,0,0,0-2.4-2.4m0,5.6a3.22,3.22,0,0,1-3.2-3.2,3.2,3.2,0,1,1,6.4,0,3.22,3.22,0,0,1-3.2,3.2"/></g><g clip-path="url(#clip-path)"><path d="M75,48.4a2.8,2.8,0,0,1-2.8,2.8,2.8,2.8,0,1,1,0-5.6A2.8,2.8,0,0,1,75,48.4"/></g><g clip-path="url(#clip-path)"><path d="M72.2,46a2.4,2.4,0,1,0,2.4,2.4A2.43,2.43,0,0,0,72.2,46m0,5.6A3.22,3.22,0,0,1,69,48.4a3.2,3.2,0,0,1,6.4,0,3.16,3.16,0,0,1-3.2,3.2"/></g><g clip-path="url(#clip-path)"><path d="M92.5,55.7a2.8,2.8,0,0,1-2.8,2.8,2.8,2.8,0,1,1,0-5.6,2.73,2.73,0,0,1,2.8,2.8"/></g><g clip-path="url(#clip-path)"><path d="M89.7,53.2a2.4,2.4,0,1,0,2.4,2.4,2.43,2.43,0,0,0-2.4-2.4m0,5.7a3.22,3.22,0,0,1-3.2-3.2,3.2,3.2,0,0,1,6.4,0,3.22,3.22,0,0,1-3.2,3.2"/></g><g clip-path="url(#clip-path)"><path d="M80.4,72a2.8,2.8,0,0,1-2.8,2.8A2.8,2.8,0,1,1,80.4,72"/></g><g clip-path="url(#clip-path)"><path d="M77.6,69.6A2.4,2.4,0,1,0,80,72a2.43,2.43,0,0,0-2.4-2.4m0,5.7a3.22,3.22,0,0,1-3.2-3.2,3.2,3.2,0,0,1,6.4,0,3.22,3.22,0,0,1-3.2,3.2"/></g><g clip-path="url(#clip-path)"><path d="M58.4,62.9a2.8,2.8,0,0,1-2.8,2.8,2.8,2.8,0,0,1,0-5.6,2.73,2.73,0,0,1,2.8,2.8"/></g><g clip-path="url(#clip-path)"><path d="M55.6,60.5A2.4,2.4,0,1,0,58,62.9a2.43,2.43,0,0,0-2.4-2.4m0,5.7A3.22,3.22,0,0,1,52.4,63a3.2,3.2,0,1,1,6.4,0,3.22,3.22,0,0,1-3.2,3.2"/></g><g clip-path="url(#clip-path)"><path d="M42.2,59.9a2.8,2.8,0,0,1-2.8,2.8,2.8,2.8,0,1,1,0-5.6,2.8,2.8,0,0,1,2.8,2.8"/></g><g clip-path="url(#clip-path)"><path d="M39.4,57.5a2.4,2.4,0,1,0,2.4,2.4,2.43,2.43,0,0,0-2.4-2.4m0,5.7A3.22,3.22,0,0,1,36.2,60a3.2,3.2,0,1,1,6.4,0,3.16,3.16,0,0,1-3.2,3.2"/></g><g clip-path="url(#clip-path)"><path d="M21.8,69.4A2.8,2.8,0,0,1,19,72.2a2.8,2.8,0,1,1,2.8-2.8"/></g><g clip-path="url(#clip-path)"><path d="M18.9,67a2.4,2.4,0,1,0,2.4,2.4A2.37,2.37,0,0,0,18.9,67m0,5.7a3.22,3.22,0,0,1-3.2-3.2,3.2,3.2,0,0,1,6.4,0,3.22,3.22,0,0,1-3.2,3.2"/></g><g clip-path="url(#clip-path)"><path d="M43.5,98.1a2.8,2.8,0,0,1-2.8,2.8,2.8,2.8,0,0,1,0-5.6,2.8,2.8,0,0,1,2.8,2.8"/></g><g clip-path="url(#clip-path)"><path d="M40.7,95.7a2.4,2.4,0,1,0,2.4,2.4,2.43,2.43,0,0,0-2.4-2.4m0,5.6a3.22,3.22,0,0,1-3.2-3.2,3.2,3.2,0,0,1,6.4,0,3.1,3.1,0,0,1-3.2,3.2"/></g><g clip-path="url(#clip-path)"><path d="M57.9,91.9a2.8,2.8,0,0,1-2.8,2.8,2.8,2.8,0,1,1,2.8-2.8"/></g><g clip-path="url(#clip-path)"><path d="M55,89.5a2.4,2.4,0,1,0,2.4,2.4A2.31,2.31,0,0,0,55,89.5m0,5.7A3.22,3.22,0,0,1,51.8,92a3.2,3.2,0,0,1,6.4,0A3.16,3.16,0,0,1,55,95.2"/></g><g clip-path="url(#clip-path)"><path d="M63.1,99.2a2.8,2.8,0,0,1-2.8,2.8,2.8,2.8,0,1,1,2.8-2.8"/></g><g clip-path="url(#clip-path)"><path d="M60.3,96.8a2.4,2.4,0,1,0,2.4,2.4,2.43,2.43,0,0,0-2.4-2.4m0,5.7a3.22,3.22,0,0,1-3.2-3.2,3.2,3.2,0,1,1,3.2,3.2"/></g><g clip-path="url(#clip-path)"><path d="M78.7,85.3a2.8,2.8,0,0,1-2.8,2.8,2.8,2.8,0,0,1,0-5.6,2.8,2.8,0,0,1,2.8,2.8"/></g><g clip-path="url(#clip-path)"><path d="M75.9,82.8a2.4,2.4,0,1,0,2.4,2.4,2.43,2.43,0,0,0-2.4-2.4m0,5.7a3.22,3.22,0,0,1-3.2-3.2,3.2,3.2,0,1,1,6.4,0,3.22,3.22,0,0,1-3.2,3.2"/></g><g clip-path="url(#clip-path)"><path d="M102.2,49.7a2.8,2.8,0,0,1-2.8,2.8,2.8,2.8,0,0,1,0-5.6,2.8,2.8,0,0,1,2.8,2.8"/></g><g clip-path="url(#clip-path)"><path d="M99.4,47.3a2.4,2.4,0,1,0,2.4,2.4,2.43,2.43,0,0,0-2.4-2.4m0,5.6a3.22,3.22,0,0,1-3.2-3.2,3.2,3.2,0,1,1,6.4,0,3.22,3.22,0,0,1-3.2,3.2"/></g><g clip-path="url(#clip-path)"><path d="M115.3,35.3a2.8,2.8,0,0,1-2.8,2.8,2.8,2.8,0,1,1,0-5.6,2.73,2.73,0,0,1,2.8,2.8"/></g><g clip-path="url(#clip-path)"><path d="M112.5,32.9a2.4,2.4,0,1,0,2.4,2.4,2.37,2.37,0,0,0-2.4-2.4m0,5.6a3.22,3.22,0,0,1-3.2-3.2,3.2,3.2,0,0,1,6.4,0,3.16,3.16,0,0,1-3.2,3.2"/></g><rect x="67.58" y="34.2" width="0.8" height="12.3" transform="translate(-10.68 32.53) rotate(-25.01)"/><rect x="80.12" y="45.64" width="0.8" height="13.3" transform="translate(5.99 112.81) rotate(-72.07)"/><rect x="91.68" y="52.29" width="5.7" height="0.8" transform="translate(-13.69 52.47) rotate(-29.02)"/><rect x="99.17" y="42.4" width="14" height="0.8" transform="translate(3.54 93.5) rotate(-48.25)"/><polygon points="58.1 61.2 57.6 60.6 69.9 49.8 70.4 50.4 58.1 61.2"/><polygon points="75.2 71.3 57.5 64.8 57.8 64 75.5 70.5 75.2 71.3"/><rect x="76.22" y="63.37" width="14.7" height="0.8" transform="translate(-16.36 96.4) rotate(-55.43)"/><rect x="47.1" y="55.96" width="0.8" height="11" transform="translate(-22.33 95.48) rotate(-78.27)"/><rect x="20.4" y="63.79" width="16.8" height="0.8" transform="translate(-24.29 18.02) rotate(-24.82)"/><rect x="73" y="78.16" width="7.9" height="0.8" transform="translate(-9.05 147.09) rotate(-84.15)"/><rect x="60.9" y="92.42" width="15.6" height="0.8" transform="translate(-43.22 64.39) rotate(-39.24)"/><rect x="57.2" y="94.19" width="0.8" height="2.9" transform="translate(-36.72 35.9) rotate(-26.59)"/><polygon points="43.4 97 43.1 96.2 52.2 92.5 52.5 93.3 43.4 97"/></svg>